<svg xmlns="http://www.w3.org/2000/svg" height="800" width="1200" viewBox="-45 -19.988125 390 119.92875"><path d="M275.1585 62.8554l-.4369.0929-.4369.131-.426.1693-.3987.1803-.3987.2293-.3713.243-.3605.2677-.3222.3058-.3113.3168-.2704.3413-.232.366-.1967.3795-.1584.4014-.1092.4042-.071.426-.0055.4396.0437.4506.0929.4506.1556.4751.1038.2349.1147.2266.1283.224.142.2239.1502.2102.1557.1994.1638.1993.1775.1966.1666.1994.1775.1993.1775.1857.1775.1966.1775.1857.1802.1993.1775.1994.1638.1966.1557.213.1502.2103.1556.2102.1284.2267.153.3113.1146.3113.0683.3113.041.3004.0027.303-.0328.2868-.06.2758-.0957.2785-.1228.265-.1475.2402-.172.2267-.2103.2157-.2103.1912-.2485.1775-.2621.1556-.2758.1284-.2977.1037-.3004.0792-.325.041-.3276.03-.325-.0218-.314-.0328-.2894-.0737-.2895-.0847-.2649-.1092-.2512-.1338-.2403-.1338-.2403-.1475-.2158-.1611-.2157-.1611-.202-.1611-.2021-.1611-.1912-.1584-.1747-.1502-.1912-.1338-.1638-.1229-.1775-.0983-.1639-.0874-.1638-.06-.1639-.0356-.3386.0164-.2594.1666-.1748.254-.1338.2512-.0955.2403-.0601.224-.0246.2156.0027.213.041.1994.0655.1993.0901.1857.1147.1748.1393.161.153.1612.1774.1611.1884.1475.2048.1365.213.1365.2294.123.2267.12.2375.123.2404.112.3659.1583.3768.131.3769.123.3795.1065.3905.0955.3741.071.3905.0574.3905.0355.3741.0054.3905-.0027.3741-.03.3878-.0546.3768-.0683.3632-.1065.3741-.1147.3605-.142.3495-.1802.3496-.194.3358-.2156.3332-.2567.3495-.3031.3086-.3195.284-.3277.2348-.355.2076-.3523.183-.3659.1337-.3796.1093-.3768.071-.3878.0437-.3905.0081-.4014-.03-.3877-.0546-.4015-.0929-.3877-.1174-.3987-.1556-.3878-.1803-.385-.2157-.3741-.243-.3741-.2813-.3605-.1393-.1474-.1392-.1612-.153-.161-.1529-.1612-.1665-.1611-.1639-.1748-.1638-.172-.153-.1748-.1665-.1857-.153-.172-.1392-.1884-.1393-.1966-.1147-.1884-.1174-.1994-.0901-.2103-.0765-.202-.0546-.224-.0382-.213-.0164-.2239.0082-.2266.0382-.213.0601-.202.0847-.2022.0983-.1747.1229-.1666.1228-.1502.1502-.1393.1611-.1174.172-.1147.1885-.101.1857-.0792.202-.0655.1994-.052.213-.0409.1993-.0246.213-.0163.213.0109.2021.0218.1994.0355.202.0464.3277.123.3031.1583.3031.1966.2786.2103.2649.2348.2676.2212.2648.2349.1147.101.1256.06.1147.0492.1257.0355.112.011h.1255l.112-.0274.112-.0382.112-.041.101-.0628.0983-.0764.101-.0901.0846-.0874.0874-.101.0738-.101.0737-.1148.06-.1256.0629-.1147.0846-.2894-.0054-.2758-.052-.2731-.1283-.2512-.1802-.2485-.2266-.2349-.2786-.2212-.3167-.1966-.3414-.1966-.3523-.172-.3768-.172-.3905-.1311-.4041-.1338-.3905-.1093-.3769-.0956-.3522-.071-.3386-.0573-.314-.0328-.2759-.0109-.2266.0164zm-18.132 8.0966l.2703-.4915.3059-.5161.344-.508.3714-.5051.4206-.4943.4341-.4697.4697-.467.497-.4341.5216-.396.5325-.3686.5489-.3332.5734-.284.5735-.243.5734-.172.5899-.1311.587-.0573.59.019.5897.093.579.1556.303.1201.2513.1475.2294.1474.1884.1612.1775.1747.153.172.1392.1857.153.1994.1528.1993.1557.2103.1747.1993.2049.2103.2157.1857.213.0355.325-.0928.1993-.101.1857-.1776.172-.2403.1611-.254.1229-.2648.082-.265.049-.2129-.0027-.1748-.0273-.1884-.0518-.1748-.0765-.161-.0901-.1748-.1038-.1612-.1256-.1638-.1393-.1475-.1529-.1501-.153-.1339-.1774-.1365-.1639-.1365-.1775-.123-.1884-.1091-.1775-.112-.1775-.1092-.1775-.0874-.1638-.0847-.1502-.0737-.153-.0737-.7427-.2786-.7537-.1911-.7646-.1174-.7673-.041-.7755.0492-.7756.1092-.7646.172-.7482.2349-.7482.2976-.7236.3468-.71.396-.6827.4369-.6472.4833-.6199.5216-.5844.5462-.5434.5843-.5079.6063-.4533.6198-.4069.6445-.344.6554-.2076.4423-.183.4533-.1802.467-.1583.4915-.1448.4888-.1201.5052-.0929.5025-.0682.5024-.0437.4997-.0082.5025.0328.5024.0546.4888.1065.4861.131.4615.194.4506.232.4342.2676.4123.3305.396.3795.3604.4451.3304.3277.2103.366.1966.415.1693.4424.172.4642.1557.5025.1202.5052.1065.527.0819.5134.0546.527.0191.5025-.0191.4997-.0437.4751-.0928.4506-.1311.4096-.1802.3878-.2294.3222-.2813.284-.3277.2212-.3932.1556-.4533.0492-.2622-.0027-.1501-.101-.0874-.1885-.0464-.213-.0355-.2157-.011-.213.0028-.224.0273-.2239.0273-.2266.041-.224.0518-.2266.0546-.2239.052-.2267.0518-.2375.0546-.224.041-.2239.0382-.2266.03-.2267.0137-.2239.0027-.2266-.0082-.4888-.0819-.4533-.1065-.4151-.1584-.3796-.1857-.3413-.2075-.3031-.2348-.2786-.2731-.2294-.2977-.2048-.3113-.1665-.3358-.1311-.3632-.1038-.3605-.0682-.3877-.03-.4015.0081-.4123.0328-.415.0573-.4151.0956-.426.1202-.4288.1583-.4287zm-13.2932 2.1245l-.1229.1639-.1502.09-.1502.0165-.1638-.0492-.153-.0874-.1255-.1365-.101-.1611-4.6287-9.3965-.0792-.1365-.0764-.112-.0874-.0983-.101-.0628-.101-.0491-.1011-.0355-.101-.011h-.101l-.0984.0274-.112.0273-.101.0491-.0983.0656-.101.0628-.0847.09-.0874.0875-.0874.101-.0737.1038-.0737.112-7.373 13.2931-.2321.4533-.2185.5052-.1338.4752-.0082.2266.0273.1502.0874.0874.1775.0737.2622.0464.1502.011.1529.0218.1748.011.1747-.0028.1775.011.1857-.0137.1884-.0164.1885-.0273.1747-.0519.1748-.0519.1611-.0655.1502-.0765.1256-.101.1229-.1284.0874-.1256 5.1993-9.3172.1365-.1502.1884-.041.1885.0492.1392.1474 4.705 9.4074.0629.112.0764.1146.0765.0984.0765.0983.09.0737.1011.0628.0874.06.101.0383.101.0355.1011.011h.0983l.101-.0137.0984-.0273.101-.0383.101-.0655.0847-.0737.0874-.0901.0874-.1147.0737-.1257 8.255-14.9452.0983-.1885.0355-.1502-.0382-.112-.1284-.1255-.2157-.1338-.1366-.0738-.1392-.0628-.153-.0464-.1638-.0355-.1611-.0246-.1638-.0109-.1639.0027-.1611.0164-.1775.0246-.1611.0273-.1611.0519-.1502.0519-.1639.0655-.1365.0765-.1502.09-.1229.0902-.1228.1147-.101.101-.0984.1256-.0874.1257zm1.977 4.8362l-.0873.1747-.0465.1775-.0109.1639.0246.1365.0792.1365.101.112.153.0847.1884.06.1365.0246.1393.0246.1365.0218.153.011.1501-.0028.1611.011.1502-.0137.1639-.0137.1502-.0273.1501-.0273.1502-.0519.1366-.0518.1365-.0629.1256-.0764.112-.0901.112-.0901.0846-.1147.0874-.1256 7.96-14.3255.0984-.254-.0164-.2484-.0901-.2512-.1639-.172-.1529-.0875-.1502-.0737-.1638-.0464-.1639-.0355-.1747-.0246-.1639.0027-.1748.0028-.1775.0273-.1747.0382-.1611.0519-.1748.0655-.1638.0656-.1475.09-.1502.0875-.1365.1147-.1366.1037-.1229.1256-.112.1284-.0982.1256-.0874.1393zm-58.8199-.6035l.0492-.2021-.1038-.224-.1912-.161-.213-.0219-2.3102.6417-.3877.0792-.3769.0437-.374.0055-.3633-.0355-.3659-.071-.3522-.1065-.3414-.1338-.3277-.1584-.303-.1993-.2923-.2212-.2648-.2349-.2294-.273-.2158-.2868-.1802-.3113-.142-.3222-.1174-.3495-.0655-.3632-.041-.3632.0055-.3878.06-.3905.1038-.5024.1447-.4916.172-.4915.2049-.4779.2212-.4806.2457-.4533.2704-.4533.2949-.4424.3195-.4314.3359-.4042.3577-.4068.3714-.3687.3823-.355.4096-.344.4232-.3059.437-.2922.4478-.2703.4615-.243.4615-.2076.4724-.1802.314-.1038.3113-.0792.325-.0792.3113-.0546.314-.041.314-.03.3114-.0027.303.0218.3005.0328.2894.06.2895.071.2758.0984.2785.1338.2512.1474.2403.172.2294.2103.2158.224.2048.2594.1775.3004.1665.3113.1775.2102.2786.0983.3003-.0163.2376-.1666.3687-.4697.2703-.4424.1693-.426.071-.3905-.0027-.3768-.0929-.3496-.1556-.3113-.2157-.2976-.265-.273-.3303-.2486-.366-.2212-.3905-.1938-.4287-.1693-.4424-.1475L190.14 63l-.4642-.0819-.4534-.0683-.4505-.0436-.4287-.0219-.4015.0055-.5761.0573-.5762.071-.5626.1065-.5352.1447-.538.1557-.5242.1939-.5107.2075-.4997.2458-.486.2676-.4725.2813-.4615.3195-.4451.3331-.4342.3413-.4232.3714-.396.3932-.396.4042-.3713.4178-.3714.4451-.344.4424-.3332.467-.284.4177-.2704.4424-.2567.467-.2457.467-.2321.4915-.194.4915-.1938.5052-.1584.5134-.1201.516-.0929.527-.0683.5162-.019.5134.019.5134.0574.516.1038.4861.1583.4998.2048.4751.2567.4588.3195.4478.3823.4233.2267.2212.243.1857.2649.1856.2649.1584.2785.1338.2758.123.2895.1091.303.0847.3005.071.314.071.314.0464.314.0328.3141.0218.314.0219.325.0082.314-.0028.314-.0027.3114-.0191.3003-.0273.3032-.03.1993-.0137.213-.0164.2266-.0273.2376-.041.2376-.0382.224-.0683.2102-.09.1884-.1148.1611-.1256.1365-.1775zm9.4838-14.4374l-.314.0027-.2376.0273-.1747.041-.1366.0628-.112.1038-.0873.1365-.0956.1912-.5025 1.1223-.1092.2649-.0355.1747.0383.101.1392.0601.2267.0219 2.0316.1393.3031.0464.1393.1092.0519.2649-.0328.4123-.131.4042-5.8465 10.0627-.2922.6062-.2676.6281-.1093.366.0137.213.1666.1365.3522.0955.1366.0246.1529.0219.1365.0245.1502-.0027.1638.011.1502-.0028.1502-.0137.1502-.0136.1502-.0273.1393-.0273.1474-.0519.1393-.0519.1229-.0655.1256-.0765.112-.0874.112-.1037.0846-.112.0874-.1393 6.5182-11.2752.3577-.4942.396-.456.2485-.2158.3004-.1037.2621-.041.2622-.0164.2512-.0164.2512-.0027.2485-.0027.2403-.0028.2376-.0027.2376-.0164.2266-.0136.2103-.0273.213-.0547.202-.0518.1857-.0902.1857-.1146.1748-.1393.1611-.1666.1475-.202.1365-.2404.1202-.2758.1092-.3277.0355-.2512-.0519-.1993-.1393-.1256-.2785-.1093-.579-.1174-.6389-.03-.6035-.0055zm-23.67-.0137l-.1638.0164-.1502.0137-.1229.0519-.112.0628-.1255.1147-.112.1529-.1338.202-.1611.2513-.183.3167-7.7443 13.722-.0956.202-.0382.1502.0273.1256.1147.1366.202.1611.1775.1092.1885.0738 6.42-.0792.1501-.0028.1502-.0382.1475-.0519.1501-.0628.1502-.0792.1366-.101.1256-.101.1229-.1147.1228-.1284.0984-.1393.101-.1392.071-.1366.0737-.1392.0492-.153.0355-.1365.0218-.303-.0655-.1858-.1775-.112-.2895-.0464-3.397-.1338-.1775-.06-.1256-.1475-.0792-.213-.0273-.213.0218-.213.0601-.1775 1.5975-2.8154.183-.3277.161-.202.1502-.1284.1612-.0519.213-.0136 4.4128-.0546.1748-.0383.1857-.1037.1747-.153.172-.1911.1612-.213.1475-.2294.1228-.213.0847-.202.06-.1639.0492-.2376-.0164-.1502-.1256-.1256-.2266-.1229-.2403-.0846-.2513-.0464-.2894-.0465-.3004-.0218-.325-.0082-.3276.0027-.3387.0055-.3386.0027-.3113.0055-.314-.0082-.3031-.0355-.2622-.0355-.2403-.0573-.112-.101-.0163-.1858.06-.303.0356-.1394.06-.1501.0601-.1748.0874-.1912.0983-.202.1092-.213.1093-.2267.1228-.2266.1366-.2294.1474-.2267.1338-.2157.1612-.213.1474-.1911.1611-.1885.1475-.1665.1611-.1393.1502-.1147.1502-.0901.1502-.0519.1365-.0136 4.0115-.0492.1747-.0273.1502-.041.1639-.0764.1338-.0874.1392-.1147.123-.1283.1228-.1393.0983-.1502.0983-.153.0847-.1638.0737-.1638.0737-.153.0492-.161.0464-.1393.0491-.2403-.0655-.1475-.1884-.1502-.3523-.1338-.415-.0682-.3905-.0219zm-18.1101 14.7924l-.0847.1775-.0246.1748.0137.161.0519.1503.0792.1256.1256.112.1392.0737.1639.06.1884.011 5.8165.0273.1884-.0137.1747-.0519.1748-.09.1611-.1038.1502-.1256.1338-.153.1256-.1529.1093-.1638.112-.1639.0846-.1638.0737-.1639.0956-.3413-.041-.2376-.1775-.2348-.1884-.0847-2.81-.1556-.1883-.0328-.1393-.101-.0765-.1366-.041-.161.011-.1885.0355-.1884.0464-.1884.0737-.1775.0738-.1502 6.3107-10.871.0874-.1912.071-.1994.0355-.2157-.0164-.213-.0765-.1611-.1638-.1365-.1502-.0601-.153-.0492-.1638-.0464-.1638-.0246-.1611-.0218-.1775-.0246-.1748.0027-.1748.0028-.1775.0136-.161.0273-.1748.041-.1639.0519-.161.0519-.1503.0764-.1502.0765-.1365.0901-.1229.1147-.112.1147-.112.1256-.0846.1393zm-1.349-14.7814l-.1611.0136-.1393.0273-.1229.052-.112.0873-.1256.142-.1338.202-.161.265-.183.3276-7.6816 13.7083-.0846.1638-.0492.153-.011.1365.0028.1256.0273.1147.0628.0983.0628.0847.101.0764.1011.0601.1284.0492.1365.0218.1502.0246.1638.0109 6.8187-.0847.202-.0273.1748-.0628.1611-.1037.1475-.1256.1365-.153.1229-.1638.0983-.1775.0983-.1884.0737-.1775.0601-.1639.0355-.1747-.0027-.1775-.052-.1475-.0764-.1393-.1147-.1228-.1392-.0738-.1639-.06-.1884-.011-3.2086.0383-.2621-.0192-.1639-.0737-.1283-.1638-.0383-.0738-.09-.1857.0354-.2157.1584-.3386 1.2261-2.261.0983-.1885.1338-.2157.1611-.2376.1857-.243.1857-.213.2103-.1775.2102-.1283.2267-.041 4.4128-.0546.1994-.0273.1993-.0901.1748-.1284.172-.1502.1502-.1911.1338-.1884.112-.2048.0983-.1885.06-.1884.0465-.1884-.0137-.1993-.0518-.1885-.1175-.1502-.1747-.0983-.213-.0464-3.4134-.0846-.1885-.0219-.1365-.0737-.101-.0874-.0765-.1229-.041-.1392-.0136-.1502.011-.1475.0354-.1666.06-.1502.0738-.1392 1.289-2.2474.1474-.2512.1365-.1775.1366-.1147.161-.0656.1994-.0382.2649-.0055 4.6259-.0546.1856-.0792.2103-.1775.224-.2648.2211-.2922.1857-.3031.1338-.265.0737-.1883.0219-.1885-.0382-.1638-.0792-.1475-.1256-.112-.1393-.0982-.1775-.0738-.1748-.0491-.1884-.0219-.1775-.0109zm-16.0458.0245l-.1748.0137-.1747.0655-.1611.0901-.1502.1147-.1366.1393-.1229.153-.1228.1747-.0983.1775-.0847.1775-.0874.1748-.06.1638-.0492.153-.071.2866-.011.1885.041.101.101.06.1885.0247 2.3211.1966.2622.06.1665.224.0246.0382.0683.2103-.0492.2403-.2075.4014-6.3572 11.237-.1338.2648-.0109.1884.0765.1857.0655.112.1256.1638.153.071.2512.0246 1.4036-.0191.1993-.0137.1639-.0273.1365-.0519.1256-.101.1229-.1393.1229-.1911.1584-.2785 6.663-11.764.1993-.2786.2102-.2293.2349-.1666.2512-.1284.2622-.0764.2867-.0656.2867-.03.2895-.0164.3004-.0164.3003-.0027.3004-.0164.2895-.03.2867-.052.2758-.0654.2622-.1175.2348-.1529.2376-.2048.1966-.2649.183-.3277.1583-.3905.0465-.2894-.0383-.1857-.1392-.0874-.366-.0846-.202-.071-.1994-.0492zM74.4116 77.8908l-.0737.1912-.0219.161.041.164.0628.1255.1147.1093.1393.0873.1638.0601.1748.011 1.4036-.0192.213-.0136.161-.052.1503-.101.1474-.2047.172-.2895 3.3288-5.6827.1584-.2785.1502-.202.1229-.1257.1365-.0764.1502-.0273.202-.0164 4.6505-.0574.415.071.4015.1202.314.1092.1147.1365.0028.2513-.0956.426-.1693.4287-.2076.3796-2.444 4.1916-.0846.2021-.0382.202.03.1994.0901.1611.1502.123.202.0736.1503.011.1501.0245.1775.0082.1748.011.1884.0109.1885-.0164.1856-.0137.1775-.0136.1857-.041.1748-.0519.1638-.0655.1475-.0764.1393-.101.1092-.1148.101-.1256 8.3233-14.3582.0737-.1775.0355-.1502-.0027-.1502-.0382-.1365-.0765-.1256-.101-.0983-.1284-.0874-.1365-.06-.1639-.0356-.1638-.0109-1.2043.0164-.2239.0027-.1638.0383-.1366.0655-.1365.1256-.1229.1775-.161.254-2.9329 5.0737-.1611.2157-.2485.243-.284.2267-.3004.1556-.2621.0656-5.0164-.0383-.2867-.06-.2157-.172-.0792-.2377.0218-.3522.1202-.426.1966-.4042 2.3566-3.965.1092-.2894-.0273-.2513-.1665-.1857-.314-.1338-.1503-.0491-.1502-.0246-.1529-.0218-.161-.0246-.1503.0027-.1529-.0109-.1502.0136-.1502.0164-.1502.0273-.1502.0383-.1365.0519-.1502.0518-.1229.0656-.1392.0628-.123.0901-.1119.0874-.112.1037-.0982.112-.0984.1284-.0873.1392zm41.6546-.7564l-.2622.2785-.232.3168-.1858.3277-.06.2266.1037.1366.3004.0956.1502.0355.1884.0354.213.011.2403.0218.2512-.0027.2622-.0027.2621-.0055.2758-.0273.2513-.0273.2512-.041.213-.0546.1993-.0628.1611-.0792.123-.0874 2.7034-2.5669.2102-.1775.1994-.1037.2512-.052.3741-.0163 3.8121-.0464.2376.0082.2266.0464.2021.0846.1638.112.1393.1748.0901.2102.0273.101.0028.1257v.1365l.0027.153-.011.1747-.0245.1611-.0082.1884-.011.1775-.0108.1748.0027.1884.0136.1639.0164.1747.0273.1502.052.1366.0627.1256.0765.0983.101.0874.1256.06.1639.0246.1775.011 1.2015-.1038.2376-.0273.1747-.041.112-.0764.0874-.1257.0464-.1775.0464-.2512 2.283-14.3063.0108-.1884-.0273-.1502-.0764-.1256-.101-.0847-.1257-.0491-.1393-.0246-.1501.0027-.1502.0273-.1502.052-.1366.0764-.1365.1038zm8.9759-3.9978l-.153-.1966-.0409-.2512.112-.2021 2.4658-2.4249.1338-.1283.1502-.1147.1611-.0874.1502-.0519.1393-.0164.112.0628.0764.123.0164.2266-.0082.3003-.0219.3387-.0218.3522-.0437.3632-.06.3632-.082.3413-.1092.3004-.1366.2649-.2102.2294-.273.1802-.2977.0765-1.8433.0245zM88.33 78.093l-.1338.213.0383.2512.1556.2103.2376.06 2.231-.0273.2621-.0273.224-.1037.3003-.254 2.7635-2.5423.2485-.1911.224-.0902.3522-.0163 4.0115-.0492.4014.0956.355.2348.1638.2594.0792.2895-.2048 1.6057-.011.1884-.0108.1502.0136.1256.0273.101.0628.0601.0765.0628.112.0355.1501.011.2021.0109.2267-.0028 1.2015-.0164.2403-.0027.1748-.0382.1228-.0765.0874-.1283.0601-.1994.0464-.2785 2.3485-14.107.0218-.1501-.0027-.1748v-.1639l-.0273-.1638-.052-.1475-.0655-.1256-.101-.0983-.1256-.0737-.153-.0246-.1993.0273-.2102.0901-.1885.1284-.4096.3304-.396.3195zm9.5385-5.3714l.0846-.101.1994-.254.2102-.2512.2076-.254.2376-.2539.2348-.254.2458-.254.2621-.2402.2594-.2185.2622-.2157.2594-.1912.2622-.1665.273-.153.1256-.0273.101.112.0274.1748-.0082.314-.0219.314-.0081.3004-.0328.2895-.0219.2758-.0491.2649-.0464.2512-.071.2376-.0847.2157-.112.1884-.1228.1775-.1366.153-.1747.1255-.1857.1038-.224.0765-.2648.041-.2758.0163-.325-.0191-.3523-.0464-.3877-.0847-.2895-.0846-.1529-.0983-.0273-.1366.06-.2266zm126.7441-9.9043l-.6499.06-.639.1066-.6499.1474-.6363.1693-.6253.2212-.6226.2458-.598.2703-.598.3086-.5872.3331-.557.3714-.5353.3823-.5215.4206-.4834.4423-.4724.4588-.4314.4943-.407.5051-.3713.5189-.3304.557-.295.5544-.3522.8192-.2922.8056-.202.7919-.1284.781-.0683.751.011.74.0819.7017.1583.6745.2349.6363.284.6117.3686.5598.4342.5079.4943.4697.557.4205.6172.355.6936.2922.7428.243.8165.1639.8656.1037.9284.0274.639-.0355.6527-.0956.6499-.1447.6472-.1967.6499-.232.6362-.2977.6363-.3195.6226-.3714.5953-.396.5844-.4341.5598-.4588.5188-.4943.508-.5215.4696-.5298.4342-.5598.3796-.568.3577-.5926.2922-.5925.2567-.6062.1939-.6035.1665-.691.1284-.6908.0928-.68.03-.6772-.0081-.639-.06-.639-.1066-.6007-.1556-.5871-.1967-.5489-.2566-.5216-.3059-.486-.3686-.4479-.407-.4068-.4696-.3578-.5161-.3085-.5817-.2567-.628-.2048-.6909-.1557-.7428-.0792-.8028-.0273zm-1.2452 2.5232l.486-.0929.4752-.0573.4779-.0164.4642.03.4506.071.4424.1202.4014.1447.3905.1966.366.2321.3303.2595.3031.2976.2676.3359.2322.3604.1802.3987.142.426.0928.4615.0437.4888-.0054.5134-.0683.5407-.0956.426-.1201.4287-.1584.4397-.1693.4287-.2076.4178-.2348.4287-.243.4042-.2731.4041-.2813.3932-.3113.3796-.3195.3686-.3359.3414-.3577.3413-.3604.3195-.3714.2922-.3878.2813-.385.254-.3987.232-.3987.2049-.3987.1802-.4751.1802-.497.1447-.5025.0929-.4997.071-.5024.03-.4998-.0054-.4888-.0574-.467-.082-.4532-.1337-.426-.1693-.4042-.2076-.355-.2457-.3304-.2867-.2785-.3223-.2294-.3714-.1802-.4123-.1202-.4506-.0546-.4997.0055-.5407.0792-.5762.1201-.516.131-.5162.1694-.5024.1966-.4916.2185-.4806.232-.467.2704-.4532.284-.4424.3086-.4287.3195-.407.3468-.3931.3714-.3796.385-.355.396-.3304.4232-.3195.4479-.2813.4478-.2703.4724-.243.486-.2185.4998-.1939zm-24.4018 12.0698l-.183.366-.172.4286-.0546.4015.0273.2266.112.1229.2785.0983.1393.0355.1365.0219.1393.0245.1502.011.1501.0109.1502-.0137.1502-.0027.1502-.0273.1502-.0273.1365-.0383.1502-.041.1256-.0627.1366-.0656.1256-.0764.112-.0874.0983-.101.0983-.1147.0737-.1284 2.799-4.8224.0983-.1502.101-.1147.0983-.0901.112-.0629.112-.041.112-.0136.101.0137.1147.0464.0873.0628.0901.0874.0765.112.0628.1365.0519.1611 1.1606 4.6259.142.2867.2403.2458.2785.161.2758.0957.3031.06.325.0219.3277-.0164.3003-.041.2868-.0928.1993-.1147.1475-.202.0955-.2513v-.213l-.9803-4.1753-.0546-.2758-.0137-.1884.0355-.1502.0874-.101.1475-.0902.2266-.0792 1.8733-.6116.4479-.1693.4369-.2294.4232-.2676.4096-.3332.385-.355.3578-.3932.3332-.4287.3085-.4451.2676-.478.2349-.4914.1802-.4916.1447-.516.0956-.5025.0437-.5025-.0191-.4997-.082-.4888-.131-.4752-.2048-.4478-.2813-.437-.344-.3959-.1393-.1256-.153-.1229-.1638-.1229-.1775-.112-.1775-.1091-.1747-.0984-.1912-.0846-.1993-.0847-.1885-.0737-.202-.06-.2021-.0492-.202-.0464-.1994-.0219-.1884-.0246-.2021.0028-3.2086.041-.2868.0027-.213.0518-.1501.0765-.1366.153-.1474.2402zm11.4773-11.824l.213.0109.1884.0464.1775.0628.1529.0846.1256.112.1256.1229.0901.1365.0901.1502.0629.1611.041.1748.0409.1884.0136.1884.0137.1885-.0082.1884-.0246.1884-.0328.1857-.0382.1775-.06.1638-.0601.1639-.0738.1392-.1583.265-.1612.2402-.1856.2403-.183.2158-.1994.202-.2102.2048-.213.1775-.224.153-.2348.1529-.2376.1283-.2484.1147-.2622.1038-.2621.09-.2622.0656-.2758.0546-.2867.03-.2895.0137-.2867.0055-.3031-.0218-.3004-.0355-.1884-.071-.1393-.123-.0901-.1747-.0519-.1884-.0055-.213.0383-.202.0846-.1885 2.2857-3.7384.1474-.202.1748-.0902.2867-.03zM103.9854 77.7815l-.0628.1502-.0464.1638-.011.1639.0274.1502.0628.1365.0901.112.1147.0846.1502.0628.1884.0219 1.2042-.0137.2513-.0164.1857-.0273.1502-.0655.1365-.1147.1229-.1639.1474-.2403 2.8373-4.8607.0983-.1502.0983-.1146.112-.0765.1119-.0519.1147-.0273.112.011.112.0245.1146.06.0874.0765.101.0847.0765.112.0792.1256.0628.1365.041.1502 1.0813 4.4866.0655.2376.0656.161.0901.1148.1365.06.1775.0219.2513.0109 1.2015-.0164.1502-.0273.1256-.0491.1256-.0792.0983-.101.0847-.1257.0737-.1393.0628-.1392.0355-.1611.0218-.1639.011-.1502-.0028-.1638-.0273-.1365-.0382-.1393-.0519-.112-.1147-.172-.0901-.1884-.101-.1885-.0901-.1993-.0792-.2103-.0765-.213-.0792-.2239-.0655-.213-.0656-.2239-.0518-.2266-.0547-.224-.0382-.2266-.041-.224-.0273-.2266-.03-.224-.0137-.2129-.0136-.213-.0027-.1993.0218-.254.0847-.1502.1993-.1393.4724-.2184.5134-.1584.4997-.1447.4997-.1693.2868-.1284.273-.1283.2758-.153.2595-.1529.2621-.1665.2485-.1666.2349-.1775.2239-.2048.2239-.1912.2103-.2157.2102-.2157.1857-.2267.1857-.2403.183-.2403.161-.254.1612-.2512.1475-.2648.1447-.2786.1229-.2785.1228-.2895.1093-.3004.071-.303.0573-.3278.0355-.3113.0082-.3413-.0164-.325-.0437-.325-.0655-.3249-.0792-.314-.1147-.3113-.131-.2867-.153-.2731-.1775-.2485-.2157-.2348-.2185-.1994-.2512-.172-.2785-.1475-.3004-.1092-.3168-.071-.3495-.0219-4.2135-.0737-.2867.0546-.325.1557-.2977.2157-.1993.2157zm9.7487-11.7422l.1202-.1884.1502-.1666.1747-.1392.1857-.1147.1994-.1038.213-.0764.2239-.0656.224-.0273.2266-.0164.2375-.0027.2267.0355.2266.0464.213.0738.2021.0846.1912.1229.1747.1365.153.1475.1283.1884.1038.1966.0764.2267.0546.3386-.0082.325-.0573.3249-.1229.3277-.1584.3304-.2102.3031-.2349.3031-.284.2786-.2976.2676-.3223.254-.3495.2293-.3604.1939-.3742.1802-.374.142-.3742.1174-.3632.0792-.3631.0437-.3387-.0082-.3276-.0355-.3004-.0819-.1884-.112-.142-.1501-.0902-.1857-.0273-.1994.011-.213.0846-.202zm-38.8774 5.2922l.011-.1775.1092-.1638.1993-.2021 2.2337-2.0208.2212-.2157.1967-.254.161-.2512.1475-.2785.123-.2895.0955-.303.071-.3141.0464-.314.0218-.314-.0054-.3141-.0273-.3113-.0546-.314-.0901-.3004-.1038-.2868-.1284-.273-.1665-.2622-.1803-.2348-.2157-.224-.2403-.1856-.2649-.172-.202-.0984-.213-.0846-.2021-.0847-.2267-.06-.213-.0601-.2266-.0465-.2267-.0355-.2403-.0218-.2239-.0218-.2403-.0246-.224-.0082-.2375-.011-.2266-.0081-.2376.0027-.2267.0027-.213.0028-.2266.0027-.1502.0027h-.1502l-.1611-.0109-.1639.0027-.1775-.0109-.1747.0027-.1748.0028-.1748.0027-.1747.0137-.1775.0136-.1748.0273-.161.0273-.164.041-.161.0519-.1502.0764-.1366.0765-.1256.0901-.1229.101-.0983.1284-.101.1393-8.1594 14.3663-.1338.3004v.213l.142.213.1884.1092.4041.1093.4014.0573 7.6215-.0928.3386-.03.3496-.0656.3631-.1174.3605-.142.3741-.194.3605-.2047.3604-.243.3496-.2786.3331-.295.3222-.303.2977-.3414.2703-.344.2349-.3523.2075-.366.172-.3795.1338-.3768.082-.3769.0327-.3632-.0164-.3768-.0791-.3495-.5353-1.7996zm-6.7804 1.1087l.1338-.2021.1748-.1775.1857-.1393.2239-.1037.2266-.0901.2485-.052.2622-.03.2649-.0027.2758.0218.2649.0465.2758.06.2648.0847.2622.0956.254.112.2266.1337.2266.1366.1912.161.1775.1585.153.1747.1146.1748.0765.1611.0519.1884.041.1857.0272.2021.0028.1993-.0219.2021-.0246.1994-.0464.202-.06.1885-.0875.1775-.0846.1638-.0983.1393-.1966.2403-.224.2157-.2239.1911-.2348.1775-.2622.153-.2485.1283-.2758.1174-.273.0901-.2895.0929-.2867.0655-.2867.041-.3004.041-.3004.0163-.3031.0164-.3113-.0082-.3004-.0082-.3031-.0355-.314-.0327-.3004-.0465-.3031-.0464-.2895-.0983-.1884-.172-.0027-.202.0682-.4643.011-.112.0245-.101zm4.7897-7.13l.2376-.0382.224-.0164.2266-.0027.213.0355.213.0355.202.06.2021.0847.1775.0983.1502.112.153.1338.1283.1502.101.1502.0764.1747.0547.1857.0273.1994-.011.2157-.0355.224-.071.2402-.1092.2403-.1229.2267-.1365.202-.1611.1912-.1611.1638-.172.1639-.1858.142-.1993.1256-.213.1174-.213.0901-.2103.0902-.2375.0764-.224.0546-.2375.041-.2376.041-.2403.0136-.2376.0027-.2375.0028-.2376-.0219-.2403-.0327-.2376-.0355-.2266-.0601-.1393-.0601-.0765-.112-.0136-.1638.0082-.2512.0245-.1256.0492-.1502.0464-.1639.0737-.1775.0847-.1884.0983-.1884.1092-.2157.123-.2021.1228-.202.1365-.213.1366-.2049.1338-.1884.1474-.1912.1366-.1747.1502-.1666.1338-.1393.1365-.1256.1256-.0901.1229-.0765.112-.0518zm33.0337-28.031l.1884.0738.2048.2349.0546.2375-.0956.3769-.1556.4041-.1693.3796-6.6384 11.7012-.0847.202.0055.1857.0519.1748.101.1502.153.1092.1774.0601.1365.0355.153.0246.1502.0082.1501.0109.1502-.0027.1502-.0028.1502-.0136.1502-.0137.1365-.041.1502-.0272.1393-.052.1365-.0545.1366-.0629.1256-.0764.1229-.0792.1229-.0874.101-.1038.0983-.101.0956-.1283.0737-.1256 7.3102-12.7771.172-.2922.1475-.1884.1474-.1038.1748-.0519.2266-.0164 6.6166-.1038.415.0437.4042.1065.213.1202.1802.1748.101.1365.0765.1338.0656.1502.041.1502.041.1638.0136.1611.0027.1639-.0082.1638-.011.1611-.0218.1775-.0355.1639-.0355.1747-.0464.1639-.0491.1638-.0465.1639-.0491.1638-.0464.1502-.0465.153-.0491.1365-.1092.3277-.1448.3058-.1447.3031-.172.2895-.183.2676-.1966.2512-.2212.243-.2348.2294-.2376.2048-.2594.1912-.2731.1802-.273.1557-.2977.142-.3004.1174-.3113.0928-.3113.0792-.325.0574-.3386.041-.3386.0054-.3386-.0055-.3905-.0327-.4397-.03-.426-.0684-.415-.0955-.366-.1557-2.605-1.439-.2267-.0984-.1502.0027-.1611.1284-.0382.0136-.112.1257-.0355.1529.0546.2376.131.3604 1.4119 3.6647.3468.5461.5762.8165.4123.5461.2403.2731.2321.2458.2403.2348.2294.2212.2294.2103.2403.1857.2294.183.2403.161.2403.1584.254.1338.2512.1338.254.123.2757.0955.2786.0956.2894.0955.3031.071.3004.0683.3277.06.3523.0574.3522.0437.224.0219.2266.0218.2267.0082.213.0082.213-.0027.1993-.0028.202-.0164.1994-.041.1884-.0409.1748-.0519.1748-.0655.161-.0765.1612-.1037.1474-.1147.1366-.142.1229-.1502.1229-.1775.0983-.202.0955-.2158.0847-.2512.0464-.2403-.0273-.1611-.142-.0984-.2758-.0955-.4779-.082-.5134.0082-.5133.0219-.5025-.0164-.2376-.0355-.2403-.0328-.2266-.0355-.2376-.0464-.2403-.0573-.2266-.0601-.2376-.071-.2294-.0847-.213-.0983-.2157-.0955-.2158-.1093-.202-.1229-.2021-.1228-.1775-.1475-.1911-.1584-.1639-.161-.1556-.1858-.153-.1857-.1283-.2102-.1147-.224-.0683-.2512.0738-.2376.1857-.1174.3604-.0546.4397-.0328.426-.0437.4369-.071.4123-.0682.4123-.0929.4124-.1201.3987-.1202.3877-.1556.3741-.1557.3714-.1939.3605-.1938.3359-.2322.3331-.243.3113-.2676.3086-.295.284-.3058.2567-.3276.2567-.3687.232-.3796.2076-.4041.183-.3796.183-.3905.1556-.4178.131-.415.0547-.4151.1884-2.4085.011-.1502.0218-.1284.0245-.0983.0355-.101.0492-.0765.0491-.0628.0874-.0519.0874-.041.112-.0245.1365-.0273.1638-.0164.1885-.0136.213-.0055.2512.011 15.8464.0873.1912.0492.1775.0955.1392.1502.1038.1857.0273.1994-.0464.1884-.9148 1.6084-.1475.2403-.161.1392-.1994.0547-.325.03-8.8257.1365-.65.0492-.6498.1229-.6745.213-.6609.2594-.6471.3359-.6336.3877-.6062.4342-.5816.497-.5298.5243-.4943.5707-.4287.5844-.3796.6335-.303.6308-.2267.6554-.153.6663-.0518.6772.0355.6663.1474.6745.2622.6472.3714.6335.232.284.2786.2458.3168.2348.355.2076.3795.1693.4151.1556.415.1202.4425.0928.4505.0546.4533.0192.437-.0082.426-.0437.426-.0956.385-.1174.374-.1693.3223-.2048.2977-.243.2457-.2923.1966-.3413.142-.3905.0465-.2894-.041-.1885-.1502-.1365-.254-.082-.1638-.0218-.1611-.0109-.1775-.011-.1748.0165-.1747.0163-.1885.0137-.1747.0273-.1884.03-.1857.0137-.1775.0273-.1857.0164-.1775.0027-.1748.0028-.1748-.0082-.1775-.0219-.1638-.0491-.1638-.0601-.1502-.0737-.153-.0983-.1392-.123-.3304-.3686-.2212-.3877-.1311-.3987-.0437-.3878.0437-.4014.1065-.4042.1693-.3905.2321-.3932.284-.3659.3195-.3686.3714-.3332.3823-.3304.4233-.295.4205-.2703.4342-.232.4478-.2104.426-.1556.4233-.131.3987-.071.3768-.0301 5.8165-.0901.325.019.1774.0738.1557.1966.0518.2021-.0327.3386-.0956.3632-.131.3168-3.5883 6.2861-.0846.2157-.0082.1994.0655.1747.1257.1366.1665.1092.2021.0737.1365.0219.1393.011.1393.0218.1502.0109.1502.0109.1501-.0027.1612-.0028.1501-.0136.1639-.0164.1502-.0273.1502-.041.1502-.041.1365-.0518.1365-.0519.1366-.0765.1256-.0764.112-.0901.0982-.101.0956-.1148.0874-.1283 7.0617-12.5586.0983-.153.112-.1529.1228-.1256.1366-.1038.1338-.101.1502-.1038.1501-.0764.1612-.0792.1502-.0765.1474-.0655.1502-.0656.1502-.0655.1365-.0628.1366-.0792.112-.0764.1119-.0765.0983-.0901.0846-.0874.0629-.1147.0491-.1147.0328-.2758-.0792-.1993-.1639-.1475-.2403-.0464-46.7419-.0437-.3359.0792-.3358.2075-.2595.2294-.0983.1393-.0846.1502-.0355.1529.0027.1502.0273.1365.0765.112.1147.0846.1502.0737.202.0219 2.6079.0846.1775.0219.1365.0355.1147.0628.0901.0847.0628.0983.041.1146.0273.123v.1255l-.0219.1393-.0245.1365-.0465.1393-.0464.1393-.0491.1256-.0738.1147-2.0507 3.6046-.183.1911-.2512.142-.2867.0792-.2868.03-.2512.0055-.2895-.06-.1392-.1093-.0792-.2485-.0546-.314-.03-.3004-.0055-.3004.0082-.2758.0218-.2649.0219-.2621.0327-.265.0328-.2511.0218-.2513.0082-.2512.0082-.2485-.0164-.2512-.041-.265-.0682-.262-.0901-.2731-.1174-.2868-.1693-.2976-.2048-.3113-.2567-.3222-.3059-.3441-.3686-.3332-.4178-.284-.467-.254-.5052-.2074-.5434-.1666-.5516-.1174-.5789-.0765-.5898-.041-.6008.0082-.5898.0601-.5735.0983-.5625.1447-.5243.1967-.508.2457-.4478.284-.4232.344-.355.3824-.295.4314-.2184.4916-.1557.5297-.0327.2376-.0219.2267.0028.2239.0163.2266.03.2267.0547.2102.0655.2021.0765.2103.0928.1884.101.1857.1284.1857.1284.1611.1529.1611.1529.1475.1775.1338.1775.1365.2048.1092.1993.0984.2158.0819.2266.0737.1884.0464.1885.0328.202.0355.1994.0218.202-.0027.1994-.0027.202-.0028.1994-.03.1857-.0519.1775-.0519.1748-.0655.161-.0901.1475-.1038.1366-.1147.1229-.1392.0983-.153.0846-.1775.071-.202.0492-.213.0082-.2376-.03-.2649-.1885-.0956-.628-.1037-.6172-.1284-.1912-.0955-.1775-.1366-.1392-.1857-.1038-.1747-.041-.1748-.0163-.1748.0245-.1502.0738-.1638.0846-.153.1229-.1392.1365-.1283.172-.1147.1748-.1147.1857-.1038.1994-.0901.1993-.0792.1994-.0655.1993-.0546.202-.0273.1748-.0274.1748-.0027.1502-.0027.2403.0328.2376.06.2157.071.202.0847.2022.0983.1747.1092.1666.1229.153.1365.1528.1475.1284.1611.1147.1748.1037.172.0765.1994.0792.1993.0655.1993.041.213.041.2267.0163.224.0028.2375-.0082.2376-.011.1392-.0081.1393-.0246.1365-.0355.153-.0219.1501-.0491.1393-.0464.1502-.0492.1502-.06.1393-.0601.1392-.0738.1393-.0846.1147-.0847.1147-.112.1147-.101.0873-.1229.0792-.1256.0628-.1365.052-.1475.03-.1638.0136-6.8186.1065-.6527.06-.6362.1366-.6117.2103-.5708.284-.5461.3468-.508.4096-.4696.4451-.4205.4833-.355.508-.3031.5434-.2322.5434-.1775.5543-.0928.5653-.0164.5407.071.538.1584.497.2594.4723.344.4342.4589.3823.568.3277.5051.2185.5161.1693.5161.1283.5298.0929.527.041.527.0054.538-.0355.5243-.071.5243-.0956.527-.1338.5244-.1584.5106-.1966.497-.2075.486-.2458.4834-.2594.4615-.2703.4588-.3059.4342-.3086.4068-.3331.396-.344.1365-.1284.1611-.1639.172-.1911.1721-.2157.1966-.2294.1966-.243.2103-.2404.2103-.254.2212-.2539.2075-.254.2212-.2539.2239-.2294.2212-.2157.2103-.2048.2102-.1802.1994-.153.1966-.1147.1884-.09.1857-.041.1638-.0164.2021.0355.1502.071.1283.0874.0765.112.0382.1365-.0109.1502-.0464.1775-.0847.1884-2.463 4.4265-.1312.3277.0137.2376.1693.2239.2376.1092.202.0355.1885.0218.1884.0219.1748.011.1747-.0165.1639-.0164.1638-.0273.1611-.041.1502-.0382.1502-.0655.1365-.0765.1366-.0791.1365-.0902.1229-.1146.1229-.1147.112-.1257.1228-.1392.112-.153.1092-.1529.0983-.1775 7.1136-12.4849.1338-.202.1365-.1175.1994-.0382.314-.0191zm-15.7427 7.78l.202.0218.1612.0737.1283.112.0765.1502.0273.161-.0218.1885-.0738.1911-.172.2622-.2212.2922-.2594.3031-.2977.3058-.3359.3059-.3604.303-.3823.295-.3987.2922-.4233.2567-.4369.243-.4342.2185-.4369.1802-.4369.1447-.426.0929-.426.0546-.4014-.0082-.3878-.0573-.355-.1202-.3386-.1966-.2922-.273-.1775-.235-.142-.2375-.09-.2512-.041-.2485-.0164-.2512.0355-.2513.06-.2512.0956-.2512.1338-.2267.1502-.2294.172-.2266.1994-.1912.2103-.1911.2239-.1775.2348-.142.2485-.1284.2513-.101.2485-.0792.2621-.0546.2512-.0136zM236.0135 31.116l-.1857.0137-.202.0136-.1994.0383-.213.0382-.2239.0655-.2267.0628-.2375.0792-.224.0874-.2375.0901-.224.1174-.2239.1147-.2102.1147-.213.1284-.2103.1256-.1857.142-.1747.142-.1748.1393-.1475.142-.1256.1529-.1092.1529-1.2207 1.8105-.1583.2157-.1366.1666-.1256.1147-.1365.0764-.1748.0382-.1993.0274h-.2622l-42.9243-.0219-.2622.0027-.213-.0245-.1638-.0383-.153-.09-.1256-.1148-.1392-.1638-.1666-.2157-1.9115-2.728-.1912-.2294-.1665-.1393-.2267-.0491-.3386-.0137-1.603.0055-.202.0273-.1475.09-.0983.1394-.0491.1529-.0219.1775.0273.1802.0628.1775.2567.4069.2922.3932.295.3796.2785.3932.232.4205.052.1885.0136.1529-.0218.142-.0738.1147-.101.0873-.112.0656-.1502.0628-.1501.0273-.1612.0246-.1747.0027-30.09-.2703-.3249.09-.3222.2185-.2485.2294-.0983.153-.0601.1529-.0137.1283.0028.1256.0382.1147.0655.101.0874.0902.1147.0628.1256.0628.1393.0382.1502.0382h.1638l8.4243.0847.4015.0246.202.09.1147.2267.0273.2922-.1065.4205-.2075.396-.0983.1393-.1502.1037-.2867.052-.3523-.0247-.4014-.0628-.415-.101-.4152-.112-.3768-.101-.3277-.0492-.4779-.0628-.4888-.0491-.4997-.0355-.527-.0246-.5161-.0246-.538.0028-.527.0136-.538.041-.527.0655-.5106.0901-.5025.1175-.4997.1392-.4724.1803-.4506.2184-.4205.2567-.3987.2922-.3714.3331-.3222.3823-.295.4206-.2566.486-.243.6363-.0957.5461.0055.497.131.4206.2295.355.3167.3058.3933.2512.4533.2158.516.1747.5544.1393.5762.112.6171.0873.6008.0628.6144.0601.5898.0492.579.0491.527.0492.4751.0491.4288.0738.3522.101.1884.0765.1639.0873.153.1038.1255.1256.101.1284.0902.1392.0655.1502.0519.153.0382.1665.0164.1639v.1775l-.0218.1665-.0355.1666-.0601.1639-.0737.1665-.0874.153-.0983.142-.123.1392-.1228.1284-.1502.1147-.2867.1392-.2512.0028-.2021-.1393-.2048-.3059-.2676-.4314-.3168-.3796-.344-.344-.3906-.3032-.4178-.2648-.4423-.2158-.4533-.1884-.4888-.1393-.4916-.112-.5134-.0627-.516-.0355-.5134.0136-.5134.0273-.4997.0765-.4998.1038-.4888.142-.4615.1665-.4478.194-.4123.2293-.3987.2676-.2103.2048-.172.2567-.1475.2922-.1092.3058-.0956.3195-.071.2786-.0491.243-.0219.2294.0027.2294.0164.2157.052.202.0654.2049.0765.202.1038.1775.1147.1912.1283.1666.1393.1638.1529.1639.1638.1392.1639.1393.1775.1393.1911.1283.1885.112.1884.1146.1911.101.2021.0875.2758.1529.153.1256.0764.1666.0164.254-.0956.5106-.0928.5079.0273.2813.0764.1638.1393.101.2649.0765.4533.101.3877.0738.3523.0245.314.011.2758-.0273.2376-.0492.1994-.0792.1856-.09.1639-.1011.1474-.1284.1366-.1392.1365-.142.1366-.1502.1365-.1557.1338-.1666.1611-.1529.1748-.1638.1857-.142.2239-.153.2485-.1283.4997-.2048.5107-.1802.5243-.1666.527-.1556.5243-.153.5243-.1665.4997-.194.3468-.1528.3386-.194.3468-.2157.3223-.243.3222-.2813.3113-.2949.284-.3167.273-.3332.2458-.344.2212-.3714.1966-.3687.172-.3823.1175-.3932.0846-.396.0574-.4068-.0055-.396-.041-.3932-.0928-.3933-.142-.3823-.2048-.3795-.2813-.3823-.3167-.3031-.355-.254-.3905-.1884-.4014-.1393-.4288-.101-.4396-.0765-.4506-.0355-.4642-.011-.4642.0028h-.4642l-.4643.0137-.4369.0164h-.4396l-.4151-.0246-.3878-.0355-.3659-.0765-.325-.112-.2894-.1529-.254-.202-.142-.2048-.0518-.2513.0464-.2293.1474-.2322.224-.2157.2485-.1775.273-.142.2895-.1037.2976-.0656.497-.0655.295-.0164.6116.0027.265.011.2484.0109.2785.0136.2622.011.2621.0109.2786.0136.273.011.265.0136.2757.011.2622.0245.2785.0355.2622.0382.2648.052.265.049.2512.0738.2621.0765.2403.101.2512.1147.2267.1256.2403.1502.101.0655.1284.0738.1256.0655.1393.0628.1365.0628.153.0382.1501.0355.1365.0137.153.0136.1365-.0273.1256-.0245.1229-.0656.1256-.09.0983-.1011.0983-.1393 1.999-3.711.1337-.254.1256-.1912.123-.1283.1228-.0901.1393-.052.1747-.0245h.2267l17.6487.0546.1775.011.1502.0382.1502.0628.1147.0901.101.1147.0765.112.0518.142.0028.1529-.0246.1638-.071.1666-1.7559 3.2741-.1228.1803-.1475.1392-.1611.1038-.1748.0492-.1884-.011-.1775-.0491-.1638-.1284-.3032-.2512-.3167-.2157-.3277-.1639-.3277-.1256-.3386-.0901-.3523-.0491-.3522-.0246-.3632.0027-.3632.0246-.3632.0519-.3604.0792-.3632.09-.3496.1148-.3632.1174-.3495.1283-.3495.1284-.3359.1392-.325.142-.325.1284-.3112.142-.2867.0246-.2786-.1502-.3932-.2786-.3768-.3058-.3933-.2785-.4041-.2403-.4533-.1748-.68-.1502-.6881-.0765-.7155-.0082-.7263.0792-.7264.1284-.7237.2048-.7127.2567-.6963.3085-.6609.3714-.6335.4206-.5844.4614-.5461.5107-.4697.5489-.4178.587-.344.6118-.2568.6499-.1775.6745-.0819.6881.0219.7237.1338.7263.131.3933.194.3823.2293.355.2785.355.3168.3167.355.2922.366.2649.404.2294.4042.202.415.1502.4288.101.415.0629.4124.0109.3878-.0519.3878-.1038.3495-.1802.3113-.2294.284-.3058.2458-.3823.183-.4588.071-.2949-.0137-.1911-.142-.1393-.2376-.0874-.3769-.0628-.3768-.011-.3878-.0108-.3768-.0383-.366-.0737-.3631-.1639-.4697-.3686-.3168-.4069-.1693-.456-.0437-.4697.071-.497.1803-.497.2703-.497.344-.486.4097-.4588.4588-.4205.497-.385.5215-.3332.5352-.2676.538-.1912.5106-.1174.5025-.0273.4533.0874.4014.1911.3304.314.2567.4452.0656.1911.0273.1775.0136.1802-.0109.1639-.0218.1666-.0492.1638-.0491.153-.071.1528-.0738.1666-.0874.153-.0846.1529-.0874.1529-.0983.1529-.0737.153-.0847.1528-.06.153-.0629.1665-.0464.1639-.0246.1666-.0082.1775.0273.2293.1257.1284.2894.0983.2267.0628.2649.0382.2867.0383.303.0245.3005-.0027.3004-.0246.2758-.041.2485-.0627.213-.1038.1856-.1393.1748-.142.1611-.1666.1366-.1774.1338-.2049.1365-.202.1229-.2185.1338-.2157.1229-.2185.1338-.2266.1365-.2321.1475-.2158.161-.2157.1721-.2184.1857-.2021.2103-.194.2239-.1774.2485-.1666.2867-.142.3004-.1283.2485-.0628.2512-.0656.2622-.0273.2649-.0109.2621.011.2512.0354.2513.052.2403.0764.2266.0983.202.1147.1885.1283.153.1502.1392.1775.1038.1912.0764.2157.0273.2294.0028.243-.0574.2649-.0846.2812-.1475.3059-2.5396 4.6395-.0956.2813.1038.2676.0382.0628.1257.1775.1638.0764.2758.011 1.4036-.0055.2403-.0137.1857-.0518.1365-.101.1502-.1776.172-.2812 7.3375-13.0802.1584-.2786.1366-.2048.1228-.1529.1257-.1038.1365-.0491.1502-.0273.202-.0137 8.4216-.0273.3905.0874.366.1775.1638.1256.0519.153-.0465.2675-.071.2813-.1092.2922-.1474.2813-.1612.254-.1966.2293-.2239.1911-.1857.1038-.1993.0492-.3523.0027-.4014-.0492-.4397-.0764-.467-.0874-.4641-.0737-.4643-.0492-.426-.0109-.3495.0273-.3632.0246-.3632.0519-.3495.0655-.3632.0655-.3495.0902-.3523.09-.3495.1038-.3495.1284-.3496.1283-.3359.1393-.325.1556-.3358.1666-.3113.1666-.325.1911-.2976.1912-.2977.2048-.2867.2294-.284.2294-.2621.232-.2594.2431-.2595.2676-.2594.2813-.2594.2922-.2485.3058-.2458.3195-.2348.344-.2212.3442-.1966.344-.183.3714-.1474.355-.1202.3687-.0956.3823-.0573.3713-.0218.3796.03.3714.0683.3659.1146.3687.183.3686.2157.3577.1775.213.1803.2185.1884.202.1911.1912.2021.1748.2267.1529.2293.1393.2513.1256.2648.101.2759.0765.2758.0628.2785.0355.2758.0273.2758-.0027h.2758l.2867-.0137.2758-.0273.2758-.0246.2868-.0273.2758-.0273.2758-.0382.2758-.0273.2621.0109.153.0901.0655.1393.0246.2048.0054.254.0164.2785.0519.1911.0764.1147.1393.0765.213.0491.4506.0628h.415l.3769-.041.3359-.1037.3113-.1283.273-.1775.2485-.2185.224-.243.2102-.2676.1966-.2813.183-.3168.172-.3195.172-.3304.1585-.344.172-.3441.183-.3305.1856-.3468.1967-.3167.2211-.3059.2349-.2949.3331-.3714.3223-.3304.3085-.3195.3113-.2812.3086-.2677.3004-.254.3086-.232.3003-.2157.3113-.194.3114-.191.3085-.1667.325-.1665.3359-.1666.3386-.153.3604-.142.3741-.1528.3878-.142.3987-.142.426-.153.4478-.1529.1256-.0519.123-.0655.1119-.0765.1256-.09.112-.1011.112-.101.1091-.1147.101-.1284.0984-.1393.0846-.1283.0874-.142.0738-.153.06-.1392.0465-.153.0491-.1528.0246-.1393.0218-.142v-.1393l-.0027-.1392-.0765-.2676-.2157-.1257-.314-.0764-.3905-.0492-.4014.0028-.3741.0245-.325.0792-2.1982.7073h-.213l-.1775-.1256-.0902-.2048.0601-.2021 1.4364-2.5887.1584-.2813.1502-.153.172-.0627.2649-.0137 14.6422-.0491.325.0109.3768.0491.3522.1147.2649.1748.1666.2567-.0355.2785-.0601.142-.06.1393-.0629.1393-.0846.1283-.0874.1256-.0847.1147-.101.1174-.112.0874-.112.0901-.1228.0628-.1366.052-.1392.0272-.1502.0137h-.1502l-.1638-.0383-.3632-.0737-.3523-.0628-.3632-.0628-.3659-.0382-.3741-.0246-.366-.011-.3631-.0109h-.3632l-.3768.0028-.3632.0136-.3632.0137-.5516.041-.5489.0518-.5516.0792-.5516.1038-.5489.1283-.5489.1557-.538.1775-.5242.1939-.5107.2293-.4997.2567-.4833.2704-.4615.3058-.4479.3332-.4096.3577-.396.396-.3577.4205-.3331.445-.295.4725-.2566.5107-.2321.5352-.0983.2676-.0847.2922-.071.2812-.071.2922-.06.2922-.0465.2922-.0328.295-.0218.2921.0027.2922.0028.2922.03.2813.041.2921.0655.2786.0792.2785.1038.2813.1147.2676.142.254.1665.254.1775.2402.2157.2403.254.2403.2649.2157.2785.1912.2922.1884.3031.1666.3004.1502.3031.1393.3168.1392.314.153.3031.1365.1884.1147.1147.1256.0383.1283-.011.1393-.06.1283-.0847.1393-.1256.1283-.1365.1147-.123.1147-.161.142-.112.1393-.0737.142-.0246.1256.0519.1283.1283.101.213.0738.2267.0519.2266.0355.213.0137.1994.0109.202-.0137.1857-.0246.2021-.0382.1748-.0519.1857-.0519.1884-.0655.1857-.0628.1884-.0792.1884-.0764.1994-.0765.1993-.0765.1993-.0764.2758-.0901.1612.0382.1665.153.1502.1501.1666.153.153.1255.1747.101.1775.0765.1884.0492.1993.0273.213-.0027.2267-.0383.1857-.0628.1638-.1174.2076-.3058.071-.3441.0355-.3687.0573-.355.1584-.3058.2867-.2185.1475-.09.1638-.0875.1611-.0791.1502-.0874.1611-.0901.1502-.1038.1475-.0901.1393-.1147.1338-.101.1392-.1147.123-.1147.1119-.1284.1092-.1392.101-.142.0847-.153.0737-.1529.06-.1775.0602-.1802.0355-.1884.0218-.2048-.0027-.2403-.0273-.153-.0765-.0764-.1502-.0383h-.2375l-.6745.1038-.6636.1802-.6608.1693-.3387.052-.3495.0655-.3386.0519-.3386.0382-.3386.0519-.3359.0273-.3277.0273-.325.0136h-.3249l-.3277-.0245-.325-.0246-.314-.0492-.314-.0628-.3031-.0874-.3031-.1147-.3004-.1256-.3031-.1502-.2922-.1911-.2758-.202-.2922-.2431-.101-.112-.101-.1147-.0902-.1147-.0765-.1256-.0764-.1283-.0656-.1393-.0518-.1392-.0383-.1393-.041-.153-.0272-.142-.0137-.1501-.0136-.153-.0028-.1529-.0027-.1529.011-.153.0245-.1528.0218-.1393.0246-.1556.0492-.1393.0355-.1393.2075-.5106.2567-.4588.284-.4205.3331-.3823.3714-.3441.3987-.3086.4233-.2676.4478-.243.4724-.2048.4888-.1803.5107-.1556.5134-.1283.5243-.101.527-.0793.5243-.0519.527-.0273.527-.0164h.4998l.5024.011.4779.0355.1884.0245.1994.0383.2266.0491.2267.0628.2512.0628.2403.0765.2621.0765.2513.06.2649.0656.2648.06.2513.052.2512.0245.2376.0246.2375-.0027.213-.0246.1994-.0519.1884-.0765.1748-.101.1474-.1556.123-.1775 1.9387-3.4544.2103-.3577.1584-.254.1502-.1666.1365-.09.1502-.0383.1884-.0137 1.9907-.0054.2785.0355.1775.2157.0137.0382.0901.1912-.011.1911-.1337.2676-6.8569 12.6324-.1338.2813-.0246.1775.0929.202h.011l.1146.1775.153.0765.2375.011 1.603-.0028.202-.0027.1611-.011.1393-.041.1229-.0627.112-.0765.101-.1147.1092-.153.1229-.2047.1474-.243 7.1027-12.9137.0874-.1529.1228-.1256.1256-.1038.1366-.101.1474-.0765.1502-.0519.1639-.0382.1747-.041.1612-.0109h.1775l.1747.011.1639.0109.1638.0245.1748.0656.1392.1256.101.1638.0547.1912.0027.1911-.0246.2048-.071.1775-6.8568 12.556-.0983.2539.1174.2676.0519.101.1256.1776.153.0764.2757.011 1.2015-.0028h.265l.213-.0137.161-.041.1393-.049.1229-.0765.0983-.1174.0983-.1502.112-.1912 7.444-13.5908.0873-.1393.0874-.101.1092-.0902.1502-.0518.1884-.0383.2513-.0273h.3113l.415-.0027 15.6444.0765.2512.0245.2021.0738.1638.1283.1038.1775.0273.2294-.0218.1911-.0355.2021-.0492.1802-.071.1912-.0737.1775-.0983.1775-.0983.1666-.112.1529-.1229.1529-.1365.1393-.1365.1283-.1612.1284-.1501.101-.1612.1038-.1747.09-.1748.0629-.1748.0655-.1884.0383-.1857.0273h-.1884l-11.0321.0355-.4506.0273-.4506.041-.4369.0764-.437.1038-.4396.1283-.4232.1666-.4096.1802-.4124.2048-.385.2294-.3878.2567-.3714.2676-.3468.295-.3358.3057-.3223.3332-.2949.344-.273.3578-.2595.3686-.2184.396-.2103.3932-.183.4096-.1092.3059-.0956.3058-.071.3168-.06.3331-.0465.3305-.0327.344.0027.3304.0055.3305.041.344.0545.3304.0656.3168.1065.3195.1147.3031.1529.2922.1666.2676.1911.2649.2185.254.2512.2157.2676.2157.3031.1775.415.202.4288.1776.4397.1393.4642.112.4779.0736.4778.0492.478.0246.486-.0028.4779-.0518.4751-.0656.4752-.1147.4615-.1283.4505-.1802.4233-.2048.4096-.2322.385-.2785.3605-.3086.3359-.3304.2949-.385.2703-.4069.0983-.1775.112-.1939.1229-.202.1092-.2049.1092-.2157.112-.2294.1092-.2293.0983-.2294.0847-.2294.071-.243.06-.2403.0492-.243.0219-.2295.0082-.2403-.0137-.2294-.0546-.2293-.0656-.2294-.1037-.2157-.1256-.2021-.1666-.2048-.101-.0765-.112-.0737-.1283-.0628-.1502-.0628-.1639-.052-.1747-.0381-.1775-.0246-.1885-.0246-.1884-.011-.1748.0137-.1856.011-.1775.0273-.1612.0519-.1501.0518-.1366.0765-.1256.0874-.0983.1037-.0737.1147-.0492.1393-.0218.153.0054.4341.0164.4069.0055.3932-.0464.4069-.1202.4342-.1229.2676-.1338.2403-.1474.243-.172.2185-.1994.2048-.1966.1775-.213.153-.224.1528-.2375.1175-.2485.09-.2485.0765-.2512.052-.2622.0245-.2512-.011-.265-.0245-.2511-.0628-.2513-.0874-.2403-.1283-.2403-.1502-.2266-.1912-.1284-.1256-.1147-.1393-.0873-.1392-.0902-.153-.0655-.1665-.0382-.153-.041-.1774-.0273-.1639-.0136-.1802.0109-.1639.0109-.1775.0218-.1802.0219-.1775.0491-.1666.0465-.1775.0628-.1665.06-.1639.0738-.1529.0737-.153.0847-.142.1857-.2784.1966-.2567.2102-.2294.2103-.2294.2376-.2048.2485-.1775.2485-.1802.2594-.153.2758-.142.273-.1283.2868-.101.2894-.1038.2977-.0765.3004-.0792.3004-.0628.314-.041.3113-.0381.314-.0274.314-.0136h.3114l7.8235-.0273h.1611l.153.0246.1501.0382.1393.0519.112.0737.1147.0765.0764.101.0628.1147.0273.1283.0028.1393-.0355.153-.0738.1665-3.5936 6.7558-.071.1639-.0492.1775-.0109.1665.0273.1666.0519.1393.101.1256.1393.101.1775.0656.1365.0245.1393.0246.1502.011.1638.0136h.1502l.1748-.0027.1638-.011.1612-.0273.1638-.0273.1611-.0382.1639-.0519.1501-.0491.1366-.0656.1365-.0764.1256-.0901.112-.101.0846-.1148.0874-.1283 7.272-13.3069.1502-.2293.1228-.153.1366-.09.1857-.0383.2648-.0164 10.4287-.0328.1884.0628.2048.1885.0874.2048-.0191.3058-.0737.2922-.1093.254-.1338.2184-.161.1775-.1748.142-.1994.1147-.224.0901-.2238.0519-.2513.0382-.2621.0246-.2649.0027-.2621-.0136-.2758-.011-.2758-.0245-.2758-.0246-.2786-.0382-.2621-.0219-.2513-.0136-.2512-.011h-.2376l-.426.0274-.4505.0518-.4642.0656-.4752.09-.4997.1039-.4997.1174-.5134.142-.5107.1529-.5133.1802-.497.1912-.4998.2075-.4724.2294-.4751.2321-.4479.2676-.4232.2676-.396.295-.374.3058-.3332.3195-.2977.3331-.2594.3578-.2321.3686-.2349.396-.2212.4068-.2211.4206-.1803.4478-.183.4451-.1447.4451-.1201.4451-.082.4588-.0464.4315-.0082.4342.0437.4178.0929.4096.1556.3795.2048.355.2786.3304.344.3059.4042.2649.4915.2266.5653.1912.2758.06.2649.052.2649.0354.2485.0246h.4778l.2376-.0136.2376-.0137.2266-.0273.2376-.0382.224-.0383.2266-.041.2239-.0382.2376-.0518.2375-.0383.2267-.0382.2485-.041.2376-.0245.2512-.0273.2621-.0137.2267.0137.1393.0628.0628.1775.03.3058.0164.254.0519.1638.0874.1147.1665.0765.2376.0628.1502.0382.1502.0246.1775.0109.1747.0273.1748-.0027h.3769l.1884-.0137.1884-.0382.1857-.0273.1638-.052.1748-.0627.1502-.0765.1365-.09.1229-.1011.0983-.1147.3823-.5762.344-.6226.306-.639.3303-.6117.1475-.254.1611-.243.172-.243.172-.2294.1994-.243.183-.2158.2103-.2293.2102-.2048.213-.2158.224-.2048.2211-.1939.2349-.202.2375-.1803.2349-.1911.2485-.1802.2376-.1639.2485-.1666.2485-.1665.2484-.153.2485-.1556.2868-.1666.3113-.1529.3113-.1393.3386-.1283.3359-.1284.3386-.1174.3359-.1283.3358-.1147.3386-.1284.3223-.1283.3113-.142.3004-.1393.2867-.1556.273-.1666.2376-.1775.2212-.2048.1857-.2157.1611-.243.123-.254.0846-.295.0327-.2921-.041-.2048-.1392-.1366-.2649-.1283-.1993-.0492-.2403-.0382-.2622-.011h-.3004l-.3003.0274-.314.0273-.3141.0519-.3113.0519-.2895.0519-.2594.0764-.2376.0628-.1884.0656-1.4964.6171-.1884.011-.1639-.1257-.1038-.1775.0355-.1775 1.756-3.1485.1474-.2048.2239-.2048.2485-.1912.2621-.1283.2485-.052 12.6351-.0436.1639.0246.1502.0382.1256.0655.1147.0874.09.1147.0765.1256.0656.1393.0382.142.0382.1502.0273.1666.0137.1529.0164.1666v.1392l.0027.153.0027.1256-.0109.243-.0355.243-.0328.2267-.0491.2294-.071.2293-.0737.2185-.0847.2157-.0983.2158-.1092.2048-.112.202-.1229.2048-.1338.1912-.1365.1802-.1611.1775-.1475.1775-.161.1666-.1749.1666-.172.1529-.1884.142-.1857.1393-.2485.1665-.2594.1666-.2622.153-.2621.1283-.2731.1283-.2621.101-.2759.1038-.2867.0792-.2758.0765-.2867.0519-.2758.0518-.2867.0273-.2895.011-.2895.0027h-.3003l-.2895-.0246-.2867-.0355-.3031-.0519-.2868-.0737-.303-.0765-.3414-.1256-.3386-.1775-.355-.1884-.3386-.1911-.355-.1748-.3386-.1393-.3523-.0628-.2376-.0136-.1638.0273-.0737.0764-.0355.1393.0136.2294.082.4069.142.445.1829.4452.1911.4178.1803.3823.1939.4178.2048.4069.2048.4068.232.407.2295.4068.243.3932.2567.3823.2676.3796.2785.355.2922.355.3059.3304.3304.3031.3413.2922.355.2785.366.2403.3904.2294.415.1885.4179.1638.4506.1256.467.101.2894.0355.2867.052.3031.0354.2867.0383.2758.0245.2895.0246h.2758l.2758-.0027.2622-.0246.2512-.041.2512-.0628.2485-.0764.224-.1038.2239-.1147.213-.1529.1966-.1802.1747-.2158.172-.2293.1612-.2813.1338-.3058.0846-.3195-.03-.2158-.1638-.1638-.3032-.1147-.1993-.0382-.2266-.011-.2513-.0109-.2894.0137-.2868.0136-.314.0137-.325.0136-.3386.0137h-.3386l-.3386-.011-.3522-.0245-.3387-.0355-.3386-.0765-.314-.0874-.314-.1256-.3031-.1665-.2677-.2021-.2512-.2267-.2294-.2922-.2048-.3304-.131-.3686.0218-.254.1748-.2184.273-.1147.426-.0901.4124-.0792.4123-.0902.3987-.09.4014-.1148.3987-.1283.3987-.1557.3878-.1802.2484-.1392.2622-.1803.273-.1775.2731-.1665.2731-.153.2895-.1174.2867-.0628h.2758l4.432.6199.2266.0355.1502.0519.101.0628.0274.09-.0246.1394-.0847.1911-.1338.243-2.6788 4.6286-.1092.2403-.011.1666.0792.1884.0246.0383.1256.1802.202.0737.377.0137 1.4035-.0055.2267-.0273.2239-.0765.213-.1037.1966-.1393.1748-.153.161-.1801.1475-.1912.1093-.1911 7.3265-13.154.2868-.2703.3468-.1775.1747-.0519.1639-.0382.161-.0273.1748-.0383.1639-.0382.1611-.0382.1502-.052.1502-.0655.1365-.0764.1256-.0901.112-.1147.0983-.1393.0847-.1638.0737-.194.0464-.2402-.0519-.153-.1638-.1529-.3523-.1392-.415-.0738-.3769-.0109-39.5055.4506h-.5516l-.5789-.011-.5762-.0354-.5762-.0601-.5652-.0874-.2158-.0628-.112-.0901-.0409-.153.011-.2539.1174-.5461.1201-.5243.0164-.5598-.0382-.1775-.041-.1666-.0628-.1502-.0765-.153-.09-.1528-.1038-.1257-.101-.142-.1257-.112-.1283-.1146-.1393-.1147-.1393-.0874-.1502-.09-.1638-.0875-.1502-.0628-.1666-.0628-.1747-.0519-.1639-.0382-.1638-.0246-.1748-.0246-.1638.0028zm-86.029 18.9786l-.213.0027-.213-.0382-.202-.0519-.202-.0737-.1748-.0901-.1775-.1147-.1639-.1393-.1529-.1638-.1283-.1775-.0765-.2021-.041-.3195.0328-.2676.0847-.2157.1502-.1912.1993-.142.224-.1147.262-.0655.2759-.0382h.2867l.2895.0245.2894.0628.2622.101.254.1257.2156.153.1775.1774.1147.2157.0765.2294.0055.254-.071.2785-.1612.3059-.0983.1283-.1501.1038-.3742.1392-.3877.0902zm112.935-8.1649l.2784.0628.1666.2403.0355.0656.0792.202-.0355.1912-.1338.2676-2.149 3.711-.112.1393-.172.153-.2376.1529-.3004.1556-.3223.1666-.374.153-.4124.1528-.4233.142-.4396.1284-.4479.1038-.4505.09-.4506.0547-.4396.0382h-.4124l-.3905-.0218-.3522-.0765-.314-.112-.265-.1529-.2157-.2157-.153-.254-.131-.4833-.03-.4588.0573-.456.1448-.4478.232-.4206.295-.4068.3604-.396.4096-.3714.4452-.344.497-.3332.5243-.295.5352-.2675.5489-.243.5488-.2185.549-.1803.5379-.142.5133-.1037.4752-.0656.4396-.0273.3878.0137zm-73.241.2212l.1502-.0519.161-.0519.1749-.0655.1993-.0519.213-.0382.2266-.0519.224-.0382.2375-.0383.224-.0382.2403-.0273.2375-.0136.224-.0137.2266-.0137.1993.0137.2021.011.1748.0245.1638.0382.1393.0492.112.0519.2403.202.0792.2922-.0465.3578-.1201.355-.1584.344-.183.344-.1857.3196-.183.3195-.1583.3058-.172.3059-.172.3058-.1721.2922-.1993.295-.1967.2921-.2211.2676-.2349.2567-.2485.2294-.1611.1147-.1748.1147-.1857.1147-.1993.09-.213.1038-.224.0765-.2375.0765-.2376.0655-.2375.0519-.2513.0519-.2485.0382-.2512.0273-.2376.0246h-.2512l-.2376.0027-.2266-.0136-.2267-.0246-.213-.0355-.202-.0519-.1857-.0628-.2922-.1393-.2157-.1502-.1748-.1775-.1038-.2048-.0792-.2157-.0136-.2294.0218-.2403.0465-.243.0846-.254.1092-.2567.1366-.254.1474-.2539.1584-.2567.1748-.2293.172-.2294.172-.2158.172-.2048.1612-.1775.1502-.1665.1229-.1284.3359-.3058.385-.2813.4096-.243.4123-.2321.3987-.2048zm103.5684-5.131l.2267.0491.202.1639.1038.2157.0164.2813-.0355.1392-.06.1803-.0875.2157-.1092.2403-.1338.2812-.1475.2922-.1584.3195-.172.3195-.1857.3195-.183.3168-.1829.3195-.1857.2922-.1857.2812-.172.254-.1475.2185-.1474.1775-.112.142-.0983.09-.1611.1011-.1994.0901-.2375.0765-.2758.0764-.2868.0656-.3003.0655-.3004.0519-.2895.0246-.2867.0273h-.2512l-.224.0027-.1774-.0382-1.521-.3523-.1503-.0491-.0764-.1147-.0164-.1912.0328-.344.497-3.6538.0464-.2785.0464-.2185.0492-.1638.0737-.1147.0874-.0765.112-.0518.161-.0273h.1885zm-58.5987-1.6002l-.1748-.0492-.153-.1911-.0272-.2021.1092-.2922.1229-.1939.1365-.1775.1611-.1638.172-.1311.2021-.1147.1966-.101.213-.0901.2267-.0656.2348-.0519.2403-.0491.2376-.0273.2485-.0273.2403-.0137h.2485l.2376-.0136.2512.0109h.4506l.2266.0109h.2021l13.0365.0956.1775.0246.1639.0764.1392.1147.1256.153.0765.1638.0546.1775.0273.1775-.0355.1802-.0983.2157-.1474.1912-.1994.1665-.224.1038-.2375.0382zm-8.4216-1.1388l.2266-.0136.224-.0273.213-.03.213-.052.213-.0655.213-.0764.1993-.0902.1993-.1037.1994-.1038.172-.1256.1748-.1283.1747-.153.1584-.1502.1502-.1529.1365-.1775.1339-.1775.112-.1911.1091-.1994.0984-.202.0737-.2021.071-.314-.041-.2267-.1638-.172-.2895-.123-.2649-.06-.2403-.0328-.213-.0218-.1993.0136-.1884.0274-.1748.0518-.1611.0656-.1639.0764-.1474.0901-.1365.101-.1366.1039-.1365.112-.1366.1146-.1365.1283-.1365.1257-.1502.1147-.1475.1174-.1638.1147-.172.101-.1885.1038-.3604.1147-.3632.0546-.3905.0054-.3741-.019-.3769-.0328-.3768-.0082-.202-.0246-.1257-.0847-.101-.1884-.1065-.3359-.0792-.325-.1147-.2867-.254-.1966-.2266-.0873-.2513-.0574-.2648-.0355-.2622-.0082-.2649.0137-.2621.041-.2485.0655-.224.1037-.3249.243-.2212.3278-.1201.2648-.112.265-.0846.2648-.0574.2649-.011.2758.0547.3004.0901.2485.153.1993.2157.1475.3905.1693.4533.1338.4123.0573z"/><path d="M5.0382 55.9275l-.4642.0055-.4397-.0055-.3877.0028-.3523.0054-.325.0028-.2758.0164-.2621.0163-.2267.0164-.1993.0137-.1748.0136-.1502.0273-.1392.0273-.123.0383-.101.041-.0873.049-.0738.0383-.0628.0656-.06.0628-.0492.0628-.0519.0764-.9694 1.5156-.0628.202.0546.1994.1393.1502.1993.0464 68.2656.0191.2512-.0164.1748-.09.161-.1776.194-.3167L77.651 43.519l.0737-.213-.0164-.1748-.101-.1392-.1393-.0983-.1884-.071-.202-.0492-.1885-.011-19.6585-.0108-.325.0054-.2376.041-.1502.0765-.1228.1256-.123.2157-1.7858 3.6319-.4042.7591-.467.7428-.5051.7209-.557.71-.6063.6608-.6445.6472-.669.609-.7072.5843-.7455.5352-.7592.5107-.7946.4751-.811.4233-.8357.385-.8356.3386-.8601.2977-.863.2485-.8738.1857-.8656.1502-.8766.0846-.8629.0246zm90.3738.4995l-.912-.0136-.923-.0383-.923-.0519-.9258-.0273-.9093-.0136-.923.0136-.9366.011-.9367.0109-.923.0109h-.9366l-.9339.011-.9366-.0028h-.923l-.9367-.0137-.9366-.0136-.923-.0137-.9366-.0245-.2103-.011-.2376-.0109-.2621-.0218-.2758-.0082-.3004-.0219-.2977-.0082-.314-.0082-.3113-.0109-.3113.0055-.3113.0027-.3113.0164-.3004.03-.3004.03-.273.052-.2622.0655-.2485.0792-.2103.1038-.1966.1146-.161.1393-.1366.1639-.0847.1529-.06.1638-.011.1611.0137.1393.0519.1365.09.112.112.0737.1639.0601.1857.0246 213.0297-.1093.2731-.041.2376-.1283.2103-.1665.183-.2021.1091-.1748v-.1775l-.1146-.2485-.142-.2621-.1393-.1475-.1748-.06-.2621-.011-1.7586.0219-1.7613.0082-1.7586.0109-1.7586-.0055-1.7613-.0027-1.7586-.0027-1.7586-.0028-1.7586-.0164-1.7613-.0163-1.7586-.0164-1.7613-.0164-1.7586-.0164-1.7614-.0164-1.7585-.0164-1.7477-.0163-1.7586-.0137-1.7477-.0055-1.7586-.0163-1.7476-.0028-1.7477.0082zM17.9365 28.0389l-.1502.0027-.1501.0246-.1502.041-.1612.0628-.1501.0655-.1502.0764-.1611.0902-.1366.1037-.1502.1147-.1365.1256-.1229.1284-.1229.1392-.0983.1393-.101.1366-.0847.1529-.0737.1502-.0492.1638-.0464.153-.0109.161-.011.1502.052.2513.1911.06.3004.071.3031.0465 34.9015.101.3659.0082.3495.0328.366.06.3768.082.3632.1092.355.1201.3632.1448.355.1583.3386.1857.3304.2103.3167.2212.3032.2321.2921.2485.2786.273.2403.284.2294.2868.2048.3222.1802.325.153.3359.1173.3386.6554 2.2228.0656.213.101.1229.1502.0491.2512.0219 21.865.0955.2403-.0027.1857-.0273.1502-.0655.1228-.112.1256-.1666.1475-.2375 8.2468-14.5084.0847-.2376-.0273-.213-.1393-.1229-.3031-.1092-.5025-.0956-.4997-.03-19.4592.0246-.2239.0136-.1638.0901-.2103.1912-2.7608 2.941-.4997.4096-.5543.3686-.2731.2158-.2867.2048-.2977.1802-.3113.1802-.325.1639-.325.1556-.3358.1557-.3359.1529-.3495.131-.3632.142-.3495.1175-.3605.1174-.3632.1038-.374.0928-.3633.0929-.3768.0792-.3605.0682-.3632.052-.3631.0436-.3632.03-.3523.0164-.3495.0028zM34.8452 0l-.2376.0027-.3659.0164-.4369.0191-.4642.0437-.4124.0656-.325.0928-.161.1147-.9585 1.592-.172.3277-.0355.213.0791.1993.101.1502.153.0738.2512.0355.4124.0054 29.8878.0492.2267-.0028.2403.011.2239.0082.2376.0109.2403.0082.2375.0218.2267.0219.2512.0355.2376.0218.2376.0355.2266.0464.2403.0492.2376.0464.2266.06.2376.0602.2294.06.224.071.2157.0847.213.0874.2157.0846.4779.2321.456.2813.4424.3222.4287.344.396.3851.3795.4096.344.4342.3305.4724.295.4861.2703.497.243.5106.2075.538.1693.5352.1448.5516.1092.549.0683.5515.0327.5625-.019.5407-.0438.5407-.0928.538-.5707 2.627-.0355.2266.0518.1365.1639.0628.314.0082 21.0649.1939.2512-.0027.1857-.041.1502-.0901.1365-.153.1475-.2375 8.397-14.533.0983-.1911.0491-.1993-.0027-.1885-.0546-.1747-.1256-.123-.202-.0736-.9285-.0656-.953-.0246-.9285-.0136z" fill="#00aeef"/></svg>